<svg width="23" height="13" viewBox="0 0 23 13" fill="none" xmlns="http://www.w3.org/2000/svg">
<path d="M22.4912 4.36496L11.482 0.0258634C11.3947 -0.00862113 11.2952 -0.00862113 11.208 0.0258634L6.74451 1.78503C6.57538 1.85171 6.49956 2.02658 6.57521 2.17581C6.65086 2.32504 6.84942 2.39187 7.01872 2.32519L11.3449 0.620035L15.3055 2.18099V4.36023C13.2036 3.68275 11.4339 3.63133 11.3542 3.62934C11.348 3.62919 11.3418 3.62919 11.3355 3.62934C11.2502 3.63133 9.22032 3.69038 6.92177 4.51785C6.00481 4.84775 5.16714 5.25851 4.43212 5.73855C4.37707 5.77456 4.33691 5.82399 4.31509 5.87954L1.15793 4.63504L5.58399 2.89052C5.75329 2.82384 5.82911 2.64898 5.75329 2.49975C5.67764 2.35052 5.47908 2.28368 5.30995 2.35036L0.198556 4.36496C0.0777261 4.41257 0 4.51846 0 4.63504C0 4.75177 0.0777261 4.85751 0.198556 4.90512L4.29623 6.5204V7.93716C4.29623 8.10058 4.44666 8.23303 4.63189 8.23303C4.81729 8.23303 4.96754 8.10058 4.96754 7.93716V6.33485C4.96754 6.33501 4.96754 6.3347 4.96754 6.33485V6.12688C5.62467 5.71337 6.36661 5.35662 7.17555 5.06564C9.27918 4.30835 11.1953 4.22641 11.3451 4.22107C11.4917 4.22611 13.2813 4.30149 15.3055 4.9924V7.93243C14.8147 8.0603 14.4553 8.4613 14.4553 8.93493C14.4553 9.3701 14.7586 9.74394 15.1888 9.90095L14.954 10.4455C13.4224 10.6779 12.2096 10.9977 11.3449 11.3984C9.35327 10.4762 6.01814 10.2156 4.96772 10.1544V9.32448C4.96772 9.16106 4.81729 9.02861 4.63206 9.02861C4.44666 9.02861 4.2964 9.16106 4.2964 9.32448V10.4339C4.2964 10.5922 4.43783 10.7225 4.61734 10.7295C4.66114 10.7312 9.02349 10.9108 11.1789 11.9928C11.2303 12.0185 11.2876 12.0315 11.3451 12.0315C11.4024 12.0315 11.4597 12.0185 11.5112 11.9926C12.2359 11.6285 13.3225 11.3197 14.6757 11.0911L14.4773 11.5516C14.438 11.6426 14.452 11.7447 14.5147 11.8248C14.5774 11.9047 14.6807 11.9526 14.791 11.9526H16.4916C16.602 11.9526 16.7052 11.9047 16.7679 11.8248C16.8305 11.7447 16.8446 11.6426 16.8054 11.5516L16.502 10.8477C17.4153 10.7556 18.0652 10.7296 18.0726 10.7293C18.2521 10.7225 18.3937 10.5922 18.3937 10.4338V9.32433C18.3937 9.16106 18.2433 9.02846 18.0581 9.02846C17.8727 9.02846 17.7224 9.16106 17.7224 9.32433V10.1547C17.4091 10.1733 16.8884 10.2101 16.256 10.2774L16.0938 9.90095C16.5238 9.74394 16.8273 9.3701 16.8273 8.93493C16.8273 8.46114 16.4679 8.0603 15.9769 7.93243V5.2431C16.6074 5.49807 17.1929 5.79363 17.7224 6.12688V6.33424V7.93716C17.7224 8.10058 17.8727 8.23303 18.0581 8.23303C18.2435 8.23303 18.3937 8.10058 18.3937 7.93716V6.5204L22.4914 4.90512C22.6122 4.85751 22.69 4.75177 22.69 4.63504C22.69 4.51846 22.6121 4.41257 22.4912 4.36496ZM15.2774 11.3609L15.6411 10.5172L16.0048 11.3609H15.2774ZM16.1558 8.93493C16.1558 9.18501 15.925 9.38841 15.6411 9.38841C15.3574 9.38841 15.1266 9.18501 15.1266 8.93493C15.1266 8.68468 15.3574 8.48129 15.6411 8.48129C15.925 8.48129 16.1558 8.68468 16.1558 8.93493ZM18.3747 5.87954C18.3529 5.82399 18.3127 5.77456 18.2577 5.73855C17.5791 5.29528 16.812 4.91198 15.9768 4.59598V2.44558L21.5319 4.63504L18.3747 5.87954Z" fill="#3A84FF"/>
</svg>
