<svg width="16" height="16" viewBox="0 0 16 16" fill="none" xmlns="http://www.w3.org/2000/svg">
<g clip-path="url(#clip0)">
<path d="M14.1325 5.72949C14.1325 5.70948 14.1325 5.68948 14.1325 5.66948C14.1337 3.16539 12.1047 1.13447 9.60062 1.1333C8.07755 1.13257 6.65586 1.89662 5.81603 3.16722C4.13744 2.6069 2.32242 3.51344 1.7621 5.19204C1.65332 5.51799 1.59764 5.85927 1.59724 6.20289C1.59724 6.22556 1.59724 6.2485 1.59724 6.27144C0.456699 6.56772 -0.227708 7.7325 0.0685718 8.87301C0.31261 9.81246 1.16001 10.4688 2.13066 10.4702H6.9138C7.06109 10.4702 7.18051 10.3508 7.18051 10.2035C7.18051 10.0562 7.06109 9.93681 6.9138 9.93681H2.13066C1.24689 9.93154 0.534711 9.21086 0.539945 8.32709C0.544646 7.53477 1.12847 6.8652 1.91276 6.75258C2.05385 6.73361 2.15516 6.60716 2.14293 6.46533C2.13573 6.37945 2.13066 6.29117 2.13066 6.20289C2.13256 4.728 3.32974 3.53388 4.80464 3.53578C5.1544 3.53621 5.50065 3.60539 5.82377 3.73931C5.94622 3.79018 6.08747 3.74338 6.15528 3.62942C7.28029 1.72779 9.73384 1.09823 11.6355 2.2232C12.8535 2.94378 13.6002 4.25426 13.5991 5.66948C13.5991 5.75776 13.5967 5.84337 13.5895 5.92925C13.5771 6.07274 13.6809 6.20013 13.8239 6.21703C14.8472 6.34365 15.5741 7.27583 15.4475 8.29912C15.332 9.23273 14.5399 9.93458 13.5991 9.93681C13.5189 9.93691 13.4387 9.93221 13.3591 9.92268C13.3208 9.91797 13.2819 9.92284 13.246 9.93681H9.05547C8.90818 9.93681 8.78876 10.0562 8.78876 10.2035C8.78876 10.3508 8.90818 10.4702 9.05547 10.4702H13.3324C13.3528 10.4702 13.373 10.4674 13.3927 10.462C13.4602 10.4676 13.5292 10.4702 13.5991 10.4702C14.9248 10.4703 15.9995 9.39559 15.9995 8.06989C15.9995 6.94968 15.2247 5.97839 14.1325 5.72949Z" fill="#284999"/>
<path d="M10.0733 12.1486L8.26557 13.9564V6.46959C8.26557 6.3223 8.14615 6.20288 7.99886 6.20288C7.85157 6.20288 7.73215 6.3223 7.73215 6.46959V13.9564L5.9244 12.1486C5.81845 12.0463 5.64962 12.0492 5.54727 12.1551C5.44746 12.2585 5.44746 12.4224 5.54727 12.5257L7.8103 14.7888C7.91445 14.8929 8.08328 14.8929 8.18743 14.7888L10.4504 12.5257C10.5528 12.4198 10.5499 12.251 10.4439 12.1486C10.3406 12.0488 10.1767 12.0488 10.0733 12.1486Z" fill="#284999"/>
</g>
<defs>
<clipPath id="clip0">
<rect width="16" height="16" fill="white"/>
</clipPath>
</defs>
</svg>
