<svg width="23" height="20" viewBox="0 0 23 20" fill="none" xmlns="http://www.w3.org/2000/svg">
<path fill-rule="evenodd" clip-rule="evenodd" d="M18.1113 4.1235C17.4731 3.82734 16.7668 3.5 15.601 3.5C14.4352 3.5 13.7289 3.82734 13.0906 4.1235L13.0228 4.15413C12.4999 4.3905 12.056 4.59113 11.3462 4.59113C10.5803 4.59113 10.1548 4.39628 9.60169 4.1235L9.53509 4.09336C8.91452 3.8123 8.22498 3.5 7.09136 3.5C5.92454 3.5 5.22819 3.82316 4.59327 4.11781L4.58102 4.1235L4.55932 4.13359C4.01624 4.38618 3.57558 4.59113 2.83655 4.59113V6.09532C3.96756 6.09532 4.68616 5.77049 5.31717 5.48525L5.34688 5.47182L5.36859 5.46173C5.91167 5.20915 6.35233 5.0042 7.09136 5.0042C7.8402 5.0042 8.2827 5.19904 8.83583 5.47182L8.84808 5.47751C9.483 5.77216 10.1793 6.09532 11.3462 6.09532C12.4798 6.09532 13.1693 5.78302 13.7899 5.50196L13.8565 5.47182L13.9243 5.4412C14.4472 5.20483 14.8911 5.0042 15.601 5.0042C16.3668 5.0042 16.7923 5.19904 17.3454 5.47182C17.9837 5.76799 18.69 6.09532 19.8558 6.09532V4.57554C19.0899 4.57554 18.6644 4.3807 18.1113 4.1235ZM13.1203 11.0309C13.7514 10.7457 14.47 10.4209 15.601 10.4209C16.7498 10.4209 17.4731 10.7482 18.1113 11.0444C18.6644 11.3171 19.0899 11.512 19.8558 11.512V13.0318C18.69 13.0318 17.9837 12.7044 17.3454 12.4083C16.7923 12.1355 16.3668 11.9406 15.601 11.9406C14.8351 11.9406 14.4096 12.1355 13.8565 12.4083L13.7899 12.4384C13.1693 12.7195 12.4798 13.0318 11.3462 13.0318C10.1793 13.0318 9.483 12.7086 8.84808 12.414L8.83583 12.4083C8.2827 12.1355 7.85722 11.9406 7.09136 11.9406C6.32549 11.9406 5.90001 12.1355 5.34688 12.4083L5.31717 12.4217C4.68616 12.7069 3.96756 13.0318 2.83655 13.0318V11.512C3.54774 11.512 3.98262 11.3152 4.49836 11.0817L4.58102 11.0444L4.64762 11.0142C5.26819 10.7332 5.95773 10.4209 7.09136 10.4209C8.25817 10.4209 8.95453 10.744 9.58944 11.0387L9.60169 11.0444C10.1548 11.3171 10.5803 11.512 11.3462 11.512C12.056 11.512 12.4999 11.3114 13.0228 11.075L13.0906 11.0444L13.1203 11.0309ZM13.0906 14.5126C13.7289 14.2164 14.4522 13.8891 15.601 13.8891C16.7498 13.8891 17.4731 14.2164 18.1113 14.5126C18.6644 14.7854 19.0899 14.9802 19.8558 14.9802V16.5C18.69 16.5 17.9837 16.1727 17.3454 15.8765C16.7923 15.6037 16.3668 15.4089 15.601 15.4089C14.8622 15.4089 14.4115 15.6184 13.86 15.8749L13.8565 15.8765L13.8442 15.8822C13.2093 16.1768 12.513 16.5 11.3462 16.5C10.1793 16.5 9.483 16.1768 8.84808 15.8822L8.83583 15.8765C8.2827 15.6037 7.8402 15.4089 7.09136 15.4089C6.35233 15.4089 5.91167 15.6138 5.36859 15.8664L5.34688 15.8765C4.70866 16.1727 3.98535 16.5 2.83655 16.5V14.9802C3.57558 14.9802 4.01624 14.7753 4.55932 14.5227L4.58102 14.5126L4.59328 14.5069C5.22819 14.2123 5.92454 13.8891 7.09136 13.8891C8.25817 13.8891 8.95452 14.2123 9.58944 14.5069L9.60169 14.5126C10.1548 14.7854 10.5803 14.9802 11.3462 14.9802C12.085 14.9802 12.5356 14.7707 13.0872 14.5142L13.0906 14.5126ZM13.1203 7.56271C13.7514 7.27747 14.47 6.95264 15.601 6.95264C16.7498 6.95264 17.4731 7.27998 18.1113 7.57614C18.6644 7.84892 19.0899 8.04377 19.8558 8.04377V9.56355C18.69 9.56355 17.9837 9.23621 17.3454 8.94005C16.7923 8.66727 16.3668 8.47242 15.601 8.47242C14.8911 8.47242 14.4472 8.67305 13.9243 8.90942C13.9019 8.91957 13.8793 8.92978 13.8565 8.94005C13.8344 8.95004 13.8122 8.9601 13.7899 8.97019C13.1693 9.25125 12.4798 9.56355 11.3462 9.56355C10.1793 9.56355 9.483 9.24039 8.84808 8.94574L8.83583 8.94005C8.2827 8.66727 7.83169 8.47242 7.09136 8.47242C6.38149 8.47242 5.93763 8.67305 5.41469 8.90942C5.39225 8.91957 5.36965 8.92978 5.34688 8.94005C5.337 8.94451 5.3271 8.94899 5.31717 8.95348C4.68616 9.23872 3.96756 9.56355 2.83655 9.56355V8.04377C3.60241 8.04377 4.02789 7.84892 4.58102 7.57614C4.60314 7.56614 4.62534 7.55609 4.64762 7.546C5.26819 7.26494 5.95774 6.95264 7.09136 6.95264C8.25817 6.95264 8.95453 7.2758 9.58944 7.57045L9.60169 7.57614C10.1548 7.84892 10.5803 8.04377 11.3462 8.04377C12.112 8.04377 12.5375 7.84892 13.0906 7.57614L13.1203 7.56271Z" fill="#94979B"/>
</svg>
