<svg width="176" height="176" viewBox="0 0 176 176" fill="none" xmlns="http://www.w3.org/2000/svg">
<g clip-path="url(#clip0)">
<path d="M88.0002 176C136.601 176 176 136.601 176 88.0002C176 39.399 136.601 0 88.0002 0C39.399 0 0 39.399 0 88.0002C0 136.601 39.399 176 88.0002 176Z" fill="#E24C4B"/>
<path d="M88.0002 176C136.601 176 176 136.601 176 88.0002C176 39.399 136.601 0 88.0002 0C39.399 0 0 39.399 0 88.0002C0 136.601 39.399 176 88.0002 176Z" fill="#E24C4B"/>
<path d="M128.15 128.15C124.85 131.45 119.35 131.45 116.05 128.15L88.0003 100.1L59.9504 128.15C56.6506 131.45 51.1503 131.45 47.8504 128.15C44.5505 124.85 44.5505 119.35 47.8504 116.05L75.9003 88.0002L47.8504 59.9503C44.5505 56.6504 44.5505 51.1501 47.8504 47.8503C51.1503 44.5504 56.6506 44.5504 59.9504 47.8503L88.0003 75.9002L116.05 47.8503C119.35 44.5504 124.85 44.5504 128.15 47.8503C131.45 51.1501 131.45 56.6504 128.15 59.9503L100.1 88.0002L128.15 116.05C131.45 119.35 131.45 124.85 128.15 128.15Z" fill="white"/>
</g>
<defs>
<clipPath id="clip0">
<rect width="176" height="176" fill="white"/>
</clipPath>
</defs>
</svg>
