<svg width="55" height="55" viewBox="0 0 55 55" fill="none" xmlns="http://www.w3.org/2000/svg">
<path d="M13.1055 0.644531H47.4805V48.7695H13.1055V0.644531Z" fill="#B9C2CF"/>
<path d="M13.1055 47.0508H47.4805V48.7695H13.1055V47.0508Z" fill="#95A4B6"/>
<path d="M41.8945 14.8242V54.3555H7.51953V6.23047H33.3008L41.8945 14.8242Z" fill="white"/>
<path d="M33.3008 14.8242H41.8945V16.543H33.3008V14.8242Z" fill="#DCE1E7"/>
<path d="M7.51953 52.6367H41.8945V54.3555H7.51953V52.6367Z" fill="#DCE1E7"/>
<path d="M41.8945 14.8242H33.3008V6.23047" fill="#95A4B6"/>
<path d="M12.4609 0V5.58594H6.875V55H42.5391V49.4141H48.125V0H12.4609ZM41.25 53.7109H8.16406V6.875H32.6562V15.4688H41.25V53.7109ZM33.9453 14.1797V7.78647L40.3385 14.1797H33.9453ZM46.8359 48.125H42.5391V14.5573L33.5677 5.58594H13.75V1.28906H46.8359V48.125Z" fill="#012D4A"/>
<path d="M12.6758 12.4609H22.9883V13.75H12.6758V12.4609Z" fill="#012D4A"/>
<path d="M12.6758 15.8984H19.5508V17.1875H12.6758V15.8984Z" fill="#012D4A"/>
<path d="M12.6758 21.0547H36.7383V22.3438H12.6758V21.0547Z" fill="#012D4A"/>
<path d="M12.6758 24.4922H36.7383V25.7812H12.6758V24.4922Z" fill="#012D4A"/>
<path d="M12.6758 31.3672H36.7383V32.6562H12.6758V31.3672Z" fill="#012D4A"/>
<path d="M12.6758 34.8047H29.8633V36.0938H12.6758V34.8047Z" fill="#012D4A"/>
<path d="M12.6758 27.9297H36.7383V29.2188H12.6758V27.9297Z" fill="#012D4A"/>
<path d="M28.1445 39.9609H36.7383V41.25H28.1445V39.9609Z" fill="#012D4A"/>
</svg>
