<svg width="53" height="53" viewBox="0 0 53 53" fill="none" xmlns="http://www.w3.org/2000/svg">
<path d="M52.4214 6.9143C52.0742 6.56713 51.6114 6.33569 51.0327 6.33569H1.96725C1.44651 6.33569 0.925764 6.56713 0.578603 6.9143C0.231441 7.26146 0 7.72434 0 8.30294V44.697C0.0578603 45.2756 0.231441 45.7385 0.636463 46.0857C0.983624 46.4328 1.50437 46.6643 2.02511 46.6643H51.0327C51.5535 46.6643 52.0742 46.4328 52.4214 46.0857C52.7686 45.7385 53 45.2756 53 44.697V8.30294C53 7.7822 52.7686 7.26146 52.4214 6.9143ZM51.2063 44.697C51.2063 44.7549 51.2063 44.7549 51.1485 44.8128C51.1485 44.8128 51.0906 44.8706 51.0327 44.8706H1.96725C1.90939 44.8706 1.90939 44.8706 1.85153 44.8128C1.85153 44.8128 1.79367 44.7549 1.79367 44.697V8.30294H1.85153C1.85153 8.24508 1.85153 8.24508 1.90939 8.18722C1.90939 8.18722 1.96725 8.12936 2.02511 8.12936H51.0327C51.0906 8.12936 51.0906 8.12936 51.1485 8.18722C51.1485 8.18722 51.2063 8.24508 51.2063 8.30294V44.697Z" fill="#595959"/>
<path d="M47.2133 12.4689C46.924 12.1796 46.519 12.006 46.0561 12.006H6.94258C6.47969 12.006 6.07467 12.1796 5.78537 12.4689C5.49607 12.7582 5.32249 13.1632 5.32249 13.6261V39.4896C5.26463 39.8946 5.43821 40.2996 5.78537 40.6468C6.07467 40.9361 6.47969 41.1097 6.94258 41.1097H7.11616H16.7788H19.614H26.4415H32.7483H45.8825H46.0561C46.519 41.1097 46.924 40.9361 47.2133 40.6468C47.5026 40.3575 47.6762 39.9525 47.6762 39.4896V13.6261C47.6762 13.1632 47.5026 12.7582 47.2133 12.4689ZM32.7483 39.3739V39.316H26.4415H19.614H16.7788H8.67838L12.7286 32.3149L16.7788 25.3138L20.829 32.3149V32.3728L22.2177 34.8029C22.2755 34.9186 22.3913 35.0344 22.5648 35.1501C22.9699 35.3815 23.5485 35.2658 23.7799 34.8029L26.9622 29.3062L32.7483 19.2385L38.5343 29.2483V29.3062L44.3203 39.3739H32.7483ZM45.9404 38.4481L40.0965 28.3804V28.3226L33.5004 16.982C33.269 16.5769 32.6904 16.4034 32.2854 16.6348C32.1697 16.6927 32.0539 16.8084 31.9382 16.982L25.4 28.3804L23.0277 32.4885L22.3913 31.3892V31.3313L17.5889 22.9994C17.3574 22.5944 16.7788 22.4208 16.3738 22.6523C16.2581 22.7101 16.1424 22.8259 16.0266 22.9994L11.2242 31.3892L7.17402 38.4481V13.7418H45.9404V38.4481Z" fill="#595959"/>
<path d="M25.2265 16.8663C24.6479 16.2877 23.78 15.8827 22.8542 15.8827C21.9863 15.8827 21.1762 16.2299 20.5398 16.8085L20.4819 16.8663C19.9033 17.4449 19.4983 18.3128 19.4983 19.2386C19.4983 20.1644 19.9033 20.9744 20.4819 21.6109C21.0605 22.1895 21.9284 22.5945 22.8542 22.5945C23.78 22.5945 24.59 22.2473 25.2265 21.6109C25.8051 21.0323 26.2101 20.1644 26.2101 19.2386C26.2101 18.3128 25.8629 17.5028 25.2265 16.8663ZM23.9535 20.3379C23.6642 20.6272 23.2592 20.8008 22.8542 20.8008C22.4492 20.8008 22.0441 20.6272 21.7548 20.3379C21.4655 20.0486 21.292 19.6436 21.292 19.2386C21.292 18.7757 21.4655 18.4285 21.7548 18.1392C22.0441 17.8499 22.4492 17.6764 22.8542 17.6764C23.2592 17.6764 23.6642 17.8499 23.9535 18.1392C24.2428 18.4285 24.4164 18.8336 24.4164 19.2386C24.4164 19.6436 24.2428 20.0486 23.9535 20.3379Z" fill="#595959"/>
</svg>
